<svg xmlns="http://www.w3.org/2000/svg" width="37" height="42.95" viewBox="0 0 37 42.95"><defs><style>.a{fill:#707070;}</style></defs><path class="a" d="M8.65-33.4c2.05,3.3,4.4,4.6,8.35,4.6.5,0,.95-.05,1.9-.1-.3,2.8-.4,3.6-.45,4.45-.25,2.95-.25,2.95-.3,3.7a27.959,27.959,0,0,0-6.75,4C8.25-14.1,6.7-11.5,6.7-8.9a4.922,4.922,0,0,0,.95,3A11.23,11.23,0,0,1,8.6-4C9.25-2.25,9.8-1.7,11-1.7c2,0,5.45-1.85,8.65-4.75,1.2,3.05,2.05,4.4,2.9,4.4.7,0,1.15-.95,1.15-2.3a3.73,3.73,0,0,0-.55-2.1,12.19,12.19,0,0,1-1.25-2.1,29.26,29.26,0,0,0,5.35-6.5A25.32,25.32,0,0,0,30.4-21.9a13.493,13.493,0,0,1,5.8,1.75,8.17,8.17,0,0,1,3.65,7.1C39.85-6.1,34.2-.9,24.05,1.6l.15.8c11.75-1,19.5-6.7,19.5-14.3a9.891,9.891,0,0,0-3.4-7.9c-2.5-2.05-5.25-3.05-9.7-3.55-.45-1.65-1.9-3-3.2-3a4.457,4.457,0,0,0-.55.1c1.2,1.1,1.6,1.8,1.6,2.75v.3a29.5,29.5,0,0,0-8,1.6,55.647,55.647,0,0,1,.95-7.55A68.377,68.377,0,0,0,31.45-31.5c3.3-1.15,4.3-1.75,4.3-2.65a1.17,1.17,0,0,0-.8-1.1,8.55,8.55,0,0,0-2.35-.4,1.48,1.48,0,0,0-1.25.55c-1.7,1.4-4.65,2.55-9.4,3.55.6-2.7.95-3.65,1.55-4.5.65-.85.65-.85.65-1.3,0-.8-.6-1.4-1.85-2.05a12.006,12.006,0,0,0-4.35-1.15A1.841,1.841,0,0,0,16.5-40c2.45.75,3.25,1.55,3.25,3.35,0,.85-.25,3.3-.55,5.55a16.961,16.961,0,0,1-2.9.25c-3.35,0-5.05-.7-7-2.95ZM18.1-18.95v1.8a37.149,37.149,0,0,0,.75,8.05C16.1-6.75,13-5.05,11.4-5.05c-1.15,0-1.9-1.2-1.9-3.05a8.476,8.476,0,0,1,1.55-4.7C12.6-15.25,14.35-16.75,18.1-18.95Zm2.25-1a25.267,25.267,0,0,1,7.85-1.9c-1.45,4.1-3.25,6.75-7.15,10.8a35.465,35.465,0,0,1-.7-7.3Z" transform="translate(-6.7 40.55)"/></svg>